<?xml version="1.0" standalone="no"?>
<!DOCTYPE svg PUBLIC "-//W3C//DTD SVG 20010904//EN"
 "http://www.w3.org/TR/2001/REC-SVG-20010904/DTD/svg10.dtd">
<svg version="1.0" xmlns="http://www.w3.org/2000/svg"
 width="500.000000pt" height="500.000000pt" viewBox="0 0 500.000000 500.000000"
 preserveAspectRatio="xMidYMid meet">

<g transform="translate(0.000000,500.000000) scale(0.100000,-0.100000)"
fill="#000000" stroke="none">
<path d="M1540 3056 l0 -816 150 0 150 0 0 155 0 155 199 0 198 0 75 73 c175
173 400 273 648 290 35 2 35 3 64 87 25 74 29 101 29 200 1 134 -15 209 -70
320 -73 149 -231 269 -428 322 -76 21 -105 22 -547 26 l-468 3 0 -815z m945
547 c114 -37 186 -99 232 -198 24 -52 28 -76 31 -171 3 -81 0 -126 -12 -165
-33 -115 -111 -196 -231 -241 -56 -20 -80 -22 -362 -26 l-303 -4 0 417 0 417
293 -5 c256 -4 299 -7 352 -24z"/>
<path d="M2915 2809 c-258 -28 -498 -172 -644 -387 -41 -61 -91 -155 -91 -172
0 -6 45 -10 124 -10 l125 0 32 56 c17 31 58 84 89 118 215 229 620 261 881 67
64 -47 146 -144 177 -208 l16 -33 128 0 128 0 -10 25 c-69 180 -240 365 -425
457 -147 74 -350 107 -530 87z"/>
<path d="M2597 2183 c-4 -3 -7 -53 -7 -110 0 -85 3 -103 15 -103 12 0 15 19
15 110 0 101 -5 122 -23 103z"/>
<path d="M2753 2173 c-12 -2 -34 -18 -48 -34 -58 -69 -13 -169 75 -169 33 0
48 6 71 29 72 72 4 192 -98 174z m77 -43 c31 -31 27 -93 -6 -119 -31 -24 -43
-26 -79 -9 -45 20 -50 103 -8 136 25 18 70 15 93 -8z"/>
<path d="M1720 2070 c0 -60 4 -100 10 -100 6 0 10 18 10 39 0 38 1 39 43 46
53 9 67 20 67 56 0 41 -24 59 -81 59 l-49 0 0 -100z m100 59 c16 -28 -4 -49
-46 -49 -32 0 -34 2 -34 35 0 33 2 35 35 35 24 0 37 -6 45 -21z"/>
<path d="M2250 2151 c0 -11 -6 -22 -12 -25 -10 -5 -10 -7 0 -12 7 -3 12 -25
12 -55 0 -63 13 -89 45 -89 30 0 33 16 5 23 -17 4 -20 14 -20 61 0 49 2 56 20
56 11 0 20 5 20 10 0 6 -9 10 -20 10 -13 0 -20 7 -20 20 0 11 -7 20 -15 20 -8
0 -15 -9 -15 -19z"/>
<path d="M1922 2107 c-30 -32 -29 -87 1 -115 50 -47 137 -10 137 58 0 69 -91
107 -138 57z m90 -14 c43 -39 4 -116 -50 -97 -22 8 -28 16 -30 49 -5 58 39 85
80 48z"/>
<path d="M2120 2050 c0 -47 4 -80 10 -80 6 0 10 23 10 50 0 49 23 90 50 90 6
0 10 5 10 10 0 14 -33 13 -48 -2 -9 -9 -12 -9 -12 0 0 7 -4 12 -10 12 -6 0
-10 -33 -10 -80z"/>
<path d="M2390 2110 c-13 -13 -20 -33 -20 -60 0 -66 54 -100 111 -70 13 7 19
7 19 0 0 -5 7 -10 15 -10 12 0 15 16 15 80 0 64 -3 80 -15 80 -8 0 -15 -5 -15
-10 0 -7 -6 -7 -19 0 -31 16 -69 12 -91 -10z m92 -17 c35 -31 12 -103 -34
-103 -24 0 -58 35 -58 60 0 24 34 60 57 60 9 0 25 -7 35 -17z"/>
<path d="M2940 2050 c0 -47 4 -80 10 -80 6 0 10 21 10 48 0 52 21 92 49 92 30
0 41 -22 41 -82 0 -45 3 -58 15 -58 24 0 21 121 -3 143 -22 20 -73 22 -90 5
-9 -9 -12 -9 -12 0 0 7 -4 12 -10 12 -6 0 -10 -33 -10 -80z"/>
<path d="M3160 2110 c-13 -13 -20 -33 -20 -60 0 -51 27 -80 75 -80 23 0 41 8
55 22 24 26 8 38 -19 14 -23 -21 -54 -20 -74 2 -10 10 -17 22 -17 25 0 4 29 7
65 7 61 0 65 1 65 23 0 57 -88 89 -130 47z m94 -22 c15 -24 5 -30 -48 -26 -46
3 -47 3 -30 26 19 27 61 27 78 0z"/>
<path d="M3803 1873 l-102 -4 -6 -57 c-34 -311 -184 -520 -437 -610 -97 -34
-280 -43 -390 -18 -283 63 -480 301 -505 609 l-6 77 -121 0 -122 0 7 -79 c15
-173 64 -311 162 -455 46 -68 148 -172 210 -215 76 -51 200 -108 292 -132 77
-21 112 -24 250 -23 133 0 174 4 240 22 253 70 450 233 567 467 45 89 65 150
83 255 21 119 20 171 -2 168 -10 -1 -64 -4 -120 -5z"/>
<path d="M1540 1735 l0 -136 148 3 147 3 3 133 3 132 -151 0 -150 0 0 -135z"/>
</g>
</svg>
